<svg id="圖層_1" data-name="圖層 1" xmlns="http://www.w3.org/2000/svg" viewBox="0 0 236.31 108.8"><defs><style>.cls-1{fill:#dcdddd;}</style></defs><path class="cls-1" d="M226.52,27.07c24.26,32.46.49,78.61-39,80.54-17,.84-34.12,1.27-51.18,1.18a50.42,50.42,0,0,1-50-54.33c.65-8.08,6.06-13.26,13.45-12.88,7.2.37,12.18,6.26,12.06,14.23-.26,17.24,10.64,27.93,27.89,27.46,15.07-.41,30.15-.59,45.22-1.11,19.42-.67,31.52-18.93,23.56-35.75-4.48-9.47-12.34-14.5-23-14.55-7.46,0-14.91.37-22.37.43-8.44.06-14.11-5-14.19-12.57S154.45,7,162.86,6.77c7.61-.22,15.22-.5,22.84-.48A51.73,51.73,0,0,1,226.52,27.07Z"/><path class="cls-1" d="M16.79,14.7A51.08,51.08,0,0,1,50.89,1.13C66.79.7,82.7.23,98.61,0c30.67-.43,54.45,24.92,51.85,55.1-.73,8.43-6.16,13.6-13.75,13.1S124.57,61.79,125,53.33c.8-16.44-10.25-28-26.64-27.68-15.74.3-31.48.64-47.22,1.15-14.83.49-25.74,11.7-25.29,25.69C26.27,66.31,38,77.14,52.53,77c6.46-.05,12.92-.36,19.38-.46,8.22-.14,13.83,4.67,14.21,12.06S81,101.83,72.79,102.16c-7.12.28-14.26.6-21.37.39-20.61-.62-36.4-9.9-45.71-28.26C-3.68,55.78-1.17,37.74,10.89,21A18.34,18.34,0,0,1,12.43,19C14.17,17.26,16,15.53,16.79,14.7Z"/></svg>