<svg id="圖層_2" data-name="圖層 2" xmlns="http://www.w3.org/2000/svg" xmlns:xlink="http://www.w3.org/1999/xlink" viewBox="0 0 300 300"><defs><style>.cls-1{fill:none;}.cls-2{clip-path:url(#clip-path);}.cls-3{fill:#44ead9;}.cls-4{fill:#43e9d9;}.cls-5{fill:#42e8da;}.cls-6{fill:#41e7da;}.cls-7{fill:#40e6db;}.cls-8{fill:#3fe5db;}.cls-9{fill:#3ee4db;}.cls-10{fill:#3de3dc;}.cls-11{fill:#3ce2dc;}.cls-12{fill:#3be1dd;}.cls-13{fill:#3ae0dd;}.cls-14{fill:#39dfdd;}.cls-15{fill:#38dede;}.cls-16{fill:#37ddde;}.cls-17{fill:#36dcdf;}.cls-18{fill:#35dbdf;}.cls-19{fill:#34dadf;}.cls-20{fill:#33d9e0;}.cls-21{fill:#32d8e0;}.cls-22{fill:#31d7e1;}.cls-23{fill:#30d6e1;}.cls-24{fill:#2fd5e1;}.cls-25{fill:#2ed4e2;}.cls-26{fill:#2dd3e2;}.cls-27{fill:#2cd2e3;}.cls-28{fill:#2bd1e3;}.cls-29{fill:#2ad0e3;}.cls-30{fill:#29cfe4;}.cls-31{fill:#28cee4;}.cls-32{fill:#27cde5;}.cls-33{fill:#26cce5;}.cls-34{fill:#25cbe5;}.cls-35{fill:#24cae6;}.cls-36{fill:#23c8e6;}.cls-37{fill:#22c7e7;}.cls-38{fill:#21c6e7;}.cls-39{fill:#20c5e7;}.cls-40{fill:#1fc4e8;}.cls-41{fill:#1ec3e8;}.cls-42{fill:#1dc2e9;}.cls-43{fill:#1cc1e9;}.cls-44{fill:#1bc0e9;}.cls-45{fill:#1abfea;}.cls-46{fill:#19beea;}.cls-47{fill:#18bdeb;}.cls-48{fill:#17bceb;}.cls-49{fill:#16bbeb;}.cls-50{fill:#15baec;}.cls-51{fill:#14b9ec;}.cls-52{fill:#13b8ed;}.cls-53{fill:#12b7ed;}.cls-54{fill:#11b6ed;}.cls-55{fill:#10b5ee;}.cls-56{fill:#0fb4ee;}.cls-57{fill:#0eb3ef;}.cls-58{fill:#0db2ef;}.cls-59{fill:#0cb1ef;}.cls-60{fill:#0bb0f0;}.cls-61{fill:#0aaff0;}.cls-62{fill:#09aef1;}.cls-63{fill:#08adf1;}.cls-64{fill:#07acf1;}.cls-65{fill:#06abf2;}.cls-66{fill:#05aaf2;}.cls-67{fill:#04a9f3;}.cls-68{fill:#03a8f3;}.cls-69{fill:#fff;}</style><clipPath id="clip-path"><path class="cls-1" d="M214.48,24.5H46.5V269.23H75.32v12.6a10.32,10.32,0,0,0,10.29,10.29h0a10.33,10.33,0,0,0,10.3-10.29v-12.6H214.48a37.81,37.81,0,0,0,37.81-37.82V62.31A37.81,37.81,0,0,0,214.48,24.5Z"/></clipPath></defs><g class="cls-2"><rect class="cls-3" x="46.5" y="24.5" width="3.12" height="267.62"/><rect class="cls-4" x="49.62" y="24.5" width="3.12" height="267.62"/><rect class="cls-5" x="52.74" y="24.5" width="3.12" height="267.62"/><rect class="cls-6" x="55.85" y="24.5" width="3.12" height="267.62"/><rect class="cls-7" x="58.97" y="24.5" width="3.12" height="267.62"/><rect class="cls-8" x="62.09" y="24.5" width="3.12" height="267.62"/><rect class="cls-9" x="65.21" y="24.5" width="3.12" height="267.62"/><rect class="cls-10" x="68.33" y="24.5" width="3.12" height="267.62"/><rect class="cls-11" x="71.44" y="24.5" width="3.12" height="267.62"/><rect class="cls-12" x="74.56" y="24.5" width="3.12" height="267.62"/><rect class="cls-13" x="77.68" y="24.5" width="3.12" height="267.62"/><rect class="cls-14" x="80.8" y="24.5" width="3.12" height="267.62"/><rect class="cls-15" x="83.92" y="24.5" width="3.12" height="267.62"/><rect class="cls-16" x="87.03" y="24.5" width="3.12" height="267.62"/><rect class="cls-17" x="90.15" y="24.5" width="3.12" height="267.62"/><rect class="cls-18" x="93.27" y="24.5" width="3.12" height="267.62"/><rect class="cls-19" x="96.39" y="24.5" width="3.12" height="267.62"/><rect class="cls-20" x="99.51" y="24.5" width="3.12" height="267.62"/><rect class="cls-21" x="102.63" y="24.5" width="3.12" height="267.62"/><rect class="cls-22" x="105.74" y="24.5" width="3.12" height="267.62"/><rect class="cls-23" x="108.86" y="24.5" width="3.12" height="267.62"/><rect class="cls-24" x="111.98" y="24.5" width="3.12" height="267.62"/><rect class="cls-25" x="115.1" y="24.5" width="3.12" height="267.62"/><rect class="cls-26" x="118.22" y="24.5" width="3.12" height="267.62"/><rect class="cls-27" x="121.33" y="24.5" width="3.12" height="267.62"/><rect class="cls-28" x="124.45" y="24.5" width="3.12" height="267.62"/><rect class="cls-29" x="127.57" y="24.5" width="3.12" height="267.62"/><rect class="cls-30" x="130.69" y="24.5" width="3.12" height="267.62"/><rect class="cls-31" x="133.81" y="24.5" width="3.12" height="267.62"/><rect class="cls-32" x="136.92" y="24.5" width="3.12" height="267.62"/><rect class="cls-33" x="140.04" y="24.5" width="3.12" height="267.62"/><rect class="cls-34" x="143.16" y="24.5" width="3.12" height="267.62"/><rect class="cls-35" x="146.28" y="24.5" width="3.12" height="267.62"/><rect class="cls-36" x="149.4" y="24.5" width="3.12" height="267.62"/><rect class="cls-37" x="152.51" y="24.5" width="3.12" height="267.62"/><rect class="cls-38" x="155.63" y="24.5" width="3.12" height="267.62"/><rect class="cls-39" x="158.75" y="24.5" width="3.12" height="267.62"/><rect class="cls-40" x="161.87" y="24.5" width="3.12" height="267.62"/><rect class="cls-41" x="164.99" y="24.5" width="3.12" height="267.62"/><rect class="cls-42" x="168.1" y="24.5" width="3.12" height="267.62"/><rect class="cls-43" x="171.22" y="24.5" width="3.12" height="267.62"/><rect class="cls-44" x="174.34" y="24.5" width="3.12" height="267.62"/><rect class="cls-45" x="177.46" y="24.5" width="3.12" height="267.62"/><rect class="cls-46" x="180.58" y="24.5" width="3.12" height="267.62"/><rect class="cls-47" x="183.69" y="24.5" width="3.12" height="267.62"/><rect class="cls-48" x="186.81" y="24.5" width="3.12" height="267.62"/><rect class="cls-49" x="189.93" y="24.5" width="3.12" height="267.62"/><rect class="cls-50" x="193.05" y="24.5" width="3.12" height="267.62"/><rect class="cls-51" x="196.17" y="24.5" width="3.12" height="267.62"/><rect class="cls-52" x="199.28" y="24.5" width="3.12" height="267.62"/><rect class="cls-53" x="202.4" y="24.5" width="3.12" height="267.62"/><rect class="cls-54" x="205.52" y="24.5" width="3.12" height="267.62"/><rect class="cls-55" x="208.64" y="24.5" width="3.12" height="267.62"/><rect class="cls-56" x="211.76" y="24.5" width="3.12" height="267.62"/><rect class="cls-57" x="214.88" y="24.5" width="3.12" height="267.62"/><rect class="cls-58" x="217.99" y="24.5" width="3.12" height="267.62"/><rect class="cls-59" x="221.11" y="24.5" width="3.12" height="267.62"/><rect class="cls-60" x="224.23" y="24.5" width="3.12" height="267.62"/><rect class="cls-61" x="227.35" y="24.5" width="3.12" height="267.62"/><rect class="cls-62" x="230.47" y="24.5" width="3.12" height="267.62"/><rect class="cls-63" x="233.58" y="24.5" width="3.12" height="267.62"/><rect class="cls-64" x="236.7" y="24.5" width="3.12" height="267.62"/><rect class="cls-65" x="239.82" y="24.5" width="3.12" height="267.62"/><rect class="cls-66" x="242.94" y="24.5" width="3.12" height="267.62"/><rect class="cls-67" x="246.06" y="24.5" width="3.12" height="267.62"/><rect class="cls-68" x="249.17" y="24.5" width="3.12" height="267.62"/></g><rect class="cls-69" x="150.79" y="124.88" width="64.86" height="20.59" rx="10.29"/><rect class="cls-69" x="86.82" y="166.6" width="128.82" height="20.59" rx="10.29"/><rect class="cls-69" x="86.82" y="211.09" width="128.82" height="20.59" rx="10.29"/><path class="cls-1" d="M119.08,107.84Z"/><path class="cls-1" d="M103.44,85.1c.16.22.31.32,0,0Z"/><path class="cls-1" d="M103.12,84.25h0A1.51,1.51,0,0,0,103,84,1.09,1.09,0,0,1,103.12,84.25Z"/><path class="cls-1" d="M103.32,85.14l-.16-.31C103.14,85.22,103.25,85.29,103.32,85.14Z"/><polygon class="cls-1" points="103.33 84.99 103.33 84.99 103.33 84.99 103.33 84.99"/><path class="cls-1" d="M120.11,108.57c.33.4.25.21,0,0Z"/><path class="cls-1" d="M120.93,112.53a3.07,3.07,0,0,0-.29.62C120.79,113.08,120.87,112.82,120.93,112.53Z"/><path class="cls-1" d="M121.16,110.17h0l0,0Z"/><path class="cls-69" d="M133.67,100.17a23.24,23.24,0,0,0-14-8.79,54.81,54.81,0,0,0-8.46-1.06c-2.79-.2-5.56-.92-7.21-3.36-3-4.5,1.82-9.64,6.35-10.07,3.21-.3,7.85.1,10.1,2.71.63.72.7,1.87,1.51,2.44s2.77.19,3.78.18c2.91,0,5.83,0,8.75-.13a1.76,1.76,0,0,0,1.11-.28.63.63,0,0,0,.12-.11,1.91,1.91,0,0,0,.26-1.46,22.44,22.44,0,0,0-2.36-7.35c-2.69-5.61-8-8.37-13.85-9.55V53.6A1.62,1.62,0,0,0,118.14,52H106a1.63,1.63,0,0,0-1.62,1.62v9.49c0-.33-6.62,2.45-7.17,2.77-4.88,2.83-8.51,6.37-10,11.93a21.08,21.08,0,0,0,1.16,14.06A19.88,19.88,0,0,0,96.91,101c3.06,1.68,9.32,4.15,13.1,4.17a15.83,15.83,0,0,1,7.76,1.64,6.76,6.76,0,0,1,3.71,4.78c.44,4-2.85,5.89-6.35,6.31a18.52,18.52,0,0,1-6.72-.29c-2.67-.67-4.06-2.69-5.33-4.95a.78.78,0,0,0-.32-.37.91.91,0,0,0-.33,0c-2.57.07-5.15.18-7.72.18-1.38,0-2.76,0-4.15,0-.84,0-2-.56-2.68.24-.88,1.12.15,3.69.39,5,1.2,6.45,6.49,13.59,13.27,14.79.92.16,1.86.33,2.81.48v9.35a1.62,1.62,0,0,0,1.62,1.61h12.17a1.61,1.61,0,0,0,1.61-1.61v-9s4-1.36,4.42-1.53a28.12,28.12,0,0,0,4.21-2.47,23.86,23.86,0,0,0,7.11-7C139.45,115.59,138,106.23,133.67,100.17Z"/></svg>